<mxfile host="app.diagrams.net" agent="Mozilla/5.0 (Windows NT 10.0; Win64; x64) AppleWebKit/537.36 (KHTML, like Gecko) Chrome/136.0.0.0 Safari/537.36" version="27.0.6">
  <diagram name="Página-1" id="O2qc2SWCC-NJ8-2ptpvJ">
    <mxGraphModel grid="1" page="1" gridSize="10" guides="1" tooltips="1" connect="1" arrows="1" fold="1" pageScale="1" pageWidth="827" pageHeight="1169" math="0" shadow="0">
      <root>
        <mxCell id="0" />
        <mxCell id="1" parent="0" />
        <mxCell id="tz_qRip3l-WuFztVWXmD-1" value="Usuario" style="shape=umlLifeline;perimeter=lifelinePerimeter;whiteSpace=wrap;container=1;dropTarget=0;collapsible=0;recursiveResize=0;outlineConnect=0;portConstraint=eastwest;newEdgeStyle={&quot;edgeStyle&quot;:&quot;elbowEdgeStyle&quot;,&quot;elbow&quot;:&quot;vertical&quot;,&quot;curved&quot;:0,&quot;rounded&quot;:0};participant=umlActor;verticalAlign=bottom;labelPosition=center;verticalLabelPosition=top;align=center;size=65;" vertex="1" parent="1">
          <mxGeometry x="20" y="20" width="35" height="2781" as="geometry" />
        </mxCell>
        <mxCell id="tz_qRip3l-WuFztVWXmD-2" value="Interface de Calendário" style="shape=umlLifeline;perimeter=lifelinePerimeter;whiteSpace=wrap;container=1;dropTarget=0;collapsible=0;recursiveResize=0;outlineConnect=0;portConstraint=eastwest;newEdgeStyle={&quot;edgeStyle&quot;:&quot;elbowEdgeStyle&quot;,&quot;elbow&quot;:&quot;vertical&quot;,&quot;curved&quot;:0,&quot;rounded&quot;:0};size=65;" vertex="1" parent="1">
          <mxGeometry x="418" y="20" width="184" height="2781" as="geometry" />
        </mxCell>
        <mxCell id="tz_qRip3l-WuFztVWXmD-3" value="Controlador de Calendário" style="shape=umlLifeline;perimeter=lifelinePerimeter;whiteSpace=wrap;container=1;dropTarget=0;collapsible=0;recursiveResize=0;outlineConnect=0;portConstraint=eastwest;newEdgeStyle={&quot;edgeStyle&quot;:&quot;elbowEdgeStyle&quot;,&quot;elbow&quot;:&quot;vertical&quot;,&quot;curved&quot;:0,&quot;rounded&quot;:0};size=65;" vertex="1" parent="1">
          <mxGeometry x="873" y="20" width="208" height="2781" as="geometry" />
        </mxCell>
        <mxCell id="tz_qRip3l-WuFztVWXmD-4" value="Repositório de Viagens" style="shape=umlLifeline;perimeter=lifelinePerimeter;whiteSpace=wrap;container=1;dropTarget=0;collapsible=0;recursiveResize=0;outlineConnect=0;portConstraint=eastwest;newEdgeStyle={&quot;edgeStyle&quot;:&quot;elbowEdgeStyle&quot;,&quot;elbow&quot;:&quot;vertical&quot;,&quot;curved&quot;:0,&quot;rounded&quot;:0};size=65;" vertex="1" parent="1">
          <mxGeometry x="1205" y="20" width="183" height="2781" as="geometry" />
        </mxCell>
        <mxCell id="tz_qRip3l-WuFztVWXmD-5" value="Gerador de Eventos" style="shape=umlLifeline;perimeter=lifelinePerimeter;whiteSpace=wrap;container=1;dropTarget=0;collapsible=0;recursiveResize=0;outlineConnect=0;portConstraint=eastwest;newEdgeStyle={&quot;edgeStyle&quot;:&quot;elbowEdgeStyle&quot;,&quot;elbow&quot;:&quot;vertical&quot;,&quot;curved&quot;:0,&quot;rounded&quot;:0};size=65;" vertex="1" parent="1">
          <mxGeometry x="1438" y="20" width="159" height="2781" as="geometry" />
        </mxCell>
        <mxCell id="tz_qRip3l-WuFztVWXmD-6" value="Serviço de Sincronização" style="shape=umlLifeline;perimeter=lifelinePerimeter;whiteSpace=wrap;container=1;dropTarget=0;collapsible=0;recursiveResize=0;outlineConnect=0;portConstraint=eastwest;newEdgeStyle={&quot;edgeStyle&quot;:&quot;elbowEdgeStyle&quot;,&quot;elbow&quot;:&quot;vertical&quot;,&quot;curved&quot;:0,&quot;rounded&quot;:0};size=65;" vertex="1" parent="1">
          <mxGeometry x="1647" y="20" width="194" height="2781" as="geometry" />
        </mxCell>
        <mxCell id="tz_qRip3l-WuFztVWXmD-7" value="Repositório de Calendários" style="shape=umlLifeline;perimeter=lifelinePerimeter;whiteSpace=wrap;container=1;dropTarget=0;collapsible=0;recursiveResize=0;outlineConnect=0;portConstraint=eastwest;newEdgeStyle={&quot;edgeStyle&quot;:&quot;elbowEdgeStyle&quot;,&quot;elbow&quot;:&quot;vertical&quot;,&quot;curved&quot;:0,&quot;rounded&quot;:0};size=65;" vertex="1" parent="1">
          <mxGeometry x="1891" y="20" width="210" height="2781" as="geometry" />
        </mxCell>
        <mxCell id="tz_qRip3l-WuFztVWXmD-8" value="alt" style="shape=umlFrame;dashed=1;pointerEvents=0;dropTarget=0;strokeColor=#B3B3B3;height=20;width=30" vertex="1" parent="1">
          <mxGeometry x="84" y="1591" width="1923" height="526" as="geometry" />
        </mxCell>
        <mxCell id="tz_qRip3l-WuFztVWXmD-9" value="[Sincronização bem-sucedida]" style="text;strokeColor=none;fillColor=none;align=center;verticalAlign=middle;whiteSpace=wrap;" vertex="1" parent="tz_qRip3l-WuFztVWXmD-8">
          <mxGeometry x="30" width="1893" height="20" as="geometry" />
        </mxCell>
        <mxCell id="tz_qRip3l-WuFztVWXmD-10" value="[Erro na sincronização]" style="shape=line;dashed=1;whiteSpace=wrap;verticalAlign=top;labelPosition=center;verticalLabelPosition=middle;align=center;strokeColor=#B3B3B3;" vertex="1" parent="tz_qRip3l-WuFztVWXmD-8">
          <mxGeometry y="322" width="1923" height="4" as="geometry" />
        </mxCell>
        <mxCell id="tz_qRip3l-WuFztVWXmD-11" value="1. Acessa visualização de calendário" style="verticalAlign=bottom;edgeStyle=elbowEdgeStyle;elbow=vertical;curved=0;rounded=0;endArrow=block;" edge="1" parent="1" source="tz_qRip3l-WuFztVWXmD-1" target="tz_qRip3l-WuFztVWXmD-2">
          <mxGeometry relative="1" as="geometry">
            <Array as="points">
              <mxPoint x="311" y="178" />
            </Array>
          </mxGeometry>
        </mxCell>
        <mxCell id="tz_qRip3l-WuFztVWXmD-12" value="2. carregarCalendario(mesAno, filtros)" style="verticalAlign=bottom;edgeStyle=elbowEdgeStyle;elbow=vertical;curved=0;rounded=0;endArrow=block;" edge="1" parent="1" source="tz_qRip3l-WuFztVWXmD-2" target="tz_qRip3l-WuFztVWXmD-3">
          <mxGeometry relative="1" as="geometry">
            <Array as="points">
              <mxPoint x="752" y="232" />
            </Array>
          </mxGeometry>
        </mxCell>
        <mxCell id="tz_qRip3l-WuFztVWXmD-13" value="3. buscarViagens(mesAno, filtros)" style="verticalAlign=bottom;edgeStyle=elbowEdgeStyle;elbow=vertical;curved=0;rounded=0;endArrow=block;" edge="1" parent="1" source="tz_qRip3l-WuFztVWXmD-3" target="tz_qRip3l-WuFztVWXmD-4">
          <mxGeometry relative="1" as="geometry">
            <Array as="points">
              <mxPoint x="1145" y="286" />
            </Array>
          </mxGeometry>
        </mxCell>
        <mxCell id="tz_qRip3l-WuFztVWXmD-14" value="4. listaViagens" style="verticalAlign=bottom;edgeStyle=elbowEdgeStyle;elbow=vertical;curved=0;rounded=0;dashed=1;dashPattern=2 3;endArrow=block;" edge="1" parent="1" source="tz_qRip3l-WuFztVWXmD-4" target="tz_qRip3l-WuFztVWXmD-3">
          <mxGeometry relative="1" as="geometry">
            <Array as="points">
              <mxPoint x="1148" y="340" />
            </Array>
          </mxGeometry>
        </mxCell>
        <mxCell id="tz_qRip3l-WuFztVWXmD-15" value="5. converterViagensParaEventos(listaViagens)" style="verticalAlign=bottom;edgeStyle=elbowEdgeStyle;elbow=vertical;curved=0;rounded=0;endArrow=block;" edge="1" parent="1" source="tz_qRip3l-WuFztVWXmD-3" target="tz_qRip3l-WuFztVWXmD-5">
          <mxGeometry relative="1" as="geometry">
            <Array as="points">
              <mxPoint x="1256" y="394" />
            </Array>
          </mxGeometry>
        </mxCell>
        <mxCell id="tz_qRip3l-WuFztVWXmD-16" value="6. listaEventos" style="verticalAlign=bottom;edgeStyle=elbowEdgeStyle;elbow=vertical;curved=0;rounded=0;dashed=1;dashPattern=2 3;endArrow=block;" edge="1" parent="1" source="tz_qRip3l-WuFztVWXmD-5" target="tz_qRip3l-WuFztVWXmD-3">
          <mxGeometry relative="1" as="geometry">
            <Array as="points">
              <mxPoint x="1259" y="448" />
            </Array>
          </mxGeometry>
        </mxCell>
        <mxCell id="tz_qRip3l-WuFztVWXmD-17" value="7. dadosCalendario(listaEventos)" style="verticalAlign=bottom;edgeStyle=elbowEdgeStyle;elbow=vertical;curved=0;rounded=0;dashed=1;dashPattern=2 3;endArrow=block;" edge="1" parent="1" source="tz_qRip3l-WuFztVWXmD-3" target="tz_qRip3l-WuFztVWXmD-2">
          <mxGeometry relative="1" as="geometry">
            <Array as="points">
              <mxPoint x="755" y="502" />
            </Array>
          </mxGeometry>
        </mxCell>
        <mxCell id="tz_qRip3l-WuFztVWXmD-18" value="8. Exibe calendário com viagens" style="verticalAlign=bottom;edgeStyle=elbowEdgeStyle;elbow=vertical;curved=0;rounded=0;dashed=1;dashPattern=2 3;endArrow=block;" edge="1" parent="1" source="tz_qRip3l-WuFztVWXmD-2" target="tz_qRip3l-WuFztVWXmD-1">
          <mxGeometry relative="1" as="geometry">
            <Array as="points">
              <mxPoint x="314" y="556" />
            </Array>
          </mxGeometry>
        </mxCell>
        <mxCell id="tz_qRip3l-WuFztVWXmD-19" value="1. Seleciona filtros (motorista, veículo, período)" style="verticalAlign=bottom;edgeStyle=elbowEdgeStyle;elbow=vertical;curved=0;rounded=0;endArrow=block;" edge="1" parent="1" source="tz_qRip3l-WuFztVWXmD-1" target="tz_qRip3l-WuFztVWXmD-2">
          <mxGeometry relative="1" as="geometry">
            <Array as="points">
              <mxPoint x="311" y="658" />
            </Array>
          </mxGeometry>
        </mxCell>
        <mxCell id="tz_qRip3l-WuFztVWXmD-20" value="2. aplicarFiltros(filtros)" style="verticalAlign=bottom;edgeStyle=elbowEdgeStyle;elbow=vertical;curved=0;rounded=0;endArrow=block;" edge="1" parent="1" source="tz_qRip3l-WuFztVWXmD-2" target="tz_qRip3l-WuFztVWXmD-3">
          <mxGeometry relative="1" as="geometry">
            <Array as="points">
              <mxPoint x="752" y="712" />
            </Array>
          </mxGeometry>
        </mxCell>
        <mxCell id="tz_qRip3l-WuFztVWXmD-21" value="3. buscarViagensFiltradas(filtros)" style="verticalAlign=bottom;edgeStyle=elbowEdgeStyle;elbow=vertical;curved=0;rounded=0;endArrow=block;" edge="1" parent="1" source="tz_qRip3l-WuFztVWXmD-3" target="tz_qRip3l-WuFztVWXmD-4">
          <mxGeometry relative="1" as="geometry">
            <Array as="points">
              <mxPoint x="1145" y="766" />
            </Array>
          </mxGeometry>
        </mxCell>
        <mxCell id="tz_qRip3l-WuFztVWXmD-22" value="4. listaViagensFiltradas" style="verticalAlign=bottom;edgeStyle=elbowEdgeStyle;elbow=vertical;curved=0;rounded=0;dashed=1;dashPattern=2 3;endArrow=block;" edge="1" parent="1" source="tz_qRip3l-WuFztVWXmD-4" target="tz_qRip3l-WuFztVWXmD-3">
          <mxGeometry relative="1" as="geometry">
            <Array as="points">
              <mxPoint x="1148" y="820" />
            </Array>
          </mxGeometry>
        </mxCell>
        <mxCell id="tz_qRip3l-WuFztVWXmD-23" value="5. converterViagensParaEventos(listaViagensFiltradas)" style="verticalAlign=bottom;edgeStyle=elbowEdgeStyle;elbow=vertical;curved=0;rounded=0;endArrow=block;" edge="1" parent="1" source="tz_qRip3l-WuFztVWXmD-3" target="tz_qRip3l-WuFztVWXmD-5">
          <mxGeometry relative="1" as="geometry">
            <Array as="points">
              <mxPoint x="1256" y="874" />
            </Array>
          </mxGeometry>
        </mxCell>
        <mxCell id="tz_qRip3l-WuFztVWXmD-24" value="6. listaEventosFiltrados" style="verticalAlign=bottom;edgeStyle=elbowEdgeStyle;elbow=vertical;curved=0;rounded=0;dashed=1;dashPattern=2 3;endArrow=block;" edge="1" parent="1" source="tz_qRip3l-WuFztVWXmD-5" target="tz_qRip3l-WuFztVWXmD-3">
          <mxGeometry relative="1" as="geometry">
            <Array as="points">
              <mxPoint x="1259" y="928" />
            </Array>
          </mxGeometry>
        </mxCell>
        <mxCell id="tz_qRip3l-WuFztVWXmD-25" value="7. dadosCalendarioFiltrado(listaEventosFiltrados)" style="verticalAlign=bottom;edgeStyle=elbowEdgeStyle;elbow=vertical;curved=0;rounded=0;dashed=1;dashPattern=2 3;endArrow=block;" edge="1" parent="1" source="tz_qRip3l-WuFztVWXmD-3" target="tz_qRip3l-WuFztVWXmD-2">
          <mxGeometry relative="1" as="geometry">
            <Array as="points">
              <mxPoint x="755" y="982" />
            </Array>
          </mxGeometry>
        </mxCell>
        <mxCell id="tz_qRip3l-WuFztVWXmD-26" value="8. Exibe calendário filtrado" style="verticalAlign=bottom;edgeStyle=elbowEdgeStyle;elbow=vertical;curved=0;rounded=0;dashed=1;dashPattern=2 3;endArrow=block;" edge="1" parent="1" source="tz_qRip3l-WuFztVWXmD-2" target="tz_qRip3l-WuFztVWXmD-1">
          <mxGeometry relative="1" as="geometry">
            <Array as="points">
              <mxPoint x="314" y="1036" />
            </Array>
          </mxGeometry>
        </mxCell>
        <mxCell id="tz_qRip3l-WuFztVWXmD-27" value="1. Solicita sincronização com calendário externo" style="verticalAlign=bottom;edgeStyle=elbowEdgeStyle;elbow=vertical;curved=0;rounded=0;endArrow=block;" edge="1" parent="1" source="tz_qRip3l-WuFztVWXmD-1" target="tz_qRip3l-WuFztVWXmD-2">
          <mxGeometry relative="1" as="geometry">
            <Array as="points">
              <mxPoint x="311" y="1139" />
            </Array>
          </mxGeometry>
        </mxCell>
        <mxCell id="tz_qRip3l-WuFztVWXmD-28" value="2. iniciarSincronizacao(idUsuario, tipoCalendarioExterno)" style="verticalAlign=bottom;edgeStyle=elbowEdgeStyle;elbow=vertical;curved=0;rounded=0;endArrow=block;" edge="1" parent="1" source="tz_qRip3l-WuFztVWXmD-2" target="tz_qRip3l-WuFztVWXmD-3">
          <mxGeometry relative="1" as="geometry">
            <Array as="points">
              <mxPoint x="752" y="1193" />
            </Array>
          </mxGeometry>
        </mxCell>
        <mxCell id="tz_qRip3l-WuFztVWXmD-29" value="3. autenticarServico(credenciaisUsuario)" style="verticalAlign=bottom;edgeStyle=elbowEdgeStyle;elbow=vertical;curved=0;rounded=0;endArrow=block;" edge="1" parent="1" source="tz_qRip3l-WuFztVWXmD-3" target="tz_qRip3l-WuFztVWXmD-6">
          <mxGeometry relative="1" as="geometry">
            <Array as="points">
              <mxPoint x="1369" y="1247" />
            </Array>
          </mxGeometry>
        </mxCell>
        <mxCell id="tz_qRip3l-WuFztVWXmD-30" value="4. tokenAutenticacao" style="verticalAlign=bottom;edgeStyle=elbowEdgeStyle;elbow=vertical;curved=0;rounded=0;dashed=1;dashPattern=2 3;endArrow=block;" edge="1" parent="1" source="tz_qRip3l-WuFztVWXmD-6" target="tz_qRip3l-WuFztVWXmD-3">
          <mxGeometry relative="1" as="geometry">
            <Array as="points">
              <mxPoint x="1372" y="1301" />
            </Array>
          </mxGeometry>
        </mxCell>
        <mxCell id="tz_qRip3l-WuFztVWXmD-31" value="5. buscarViagensUsuario(idUsuario)" style="verticalAlign=bottom;edgeStyle=elbowEdgeStyle;elbow=vertical;curved=0;rounded=0;endArrow=block;" edge="1" parent="1" source="tz_qRip3l-WuFztVWXmD-3" target="tz_qRip3l-WuFztVWXmD-4">
          <mxGeometry relative="1" as="geometry">
            <Array as="points">
              <mxPoint x="1145" y="1355" />
            </Array>
          </mxGeometry>
        </mxCell>
        <mxCell id="tz_qRip3l-WuFztVWXmD-32" value="6. listaViagensUsuario" style="verticalAlign=bottom;edgeStyle=elbowEdgeStyle;elbow=vertical;curved=0;rounded=0;dashed=1;dashPattern=2 3;endArrow=block;" edge="1" parent="1" source="tz_qRip3l-WuFztVWXmD-4" target="tz_qRip3l-WuFztVWXmD-3">
          <mxGeometry relative="1" as="geometry">
            <Array as="points">
              <mxPoint x="1148" y="1409" />
            </Array>
          </mxGeometry>
        </mxCell>
        <mxCell id="tz_qRip3l-WuFztVWXmD-33" value="7. converterViagensParaEventosExternos(listaViagensUsuario, formatoExterno)" style="verticalAlign=bottom;edgeStyle=elbowEdgeStyle;elbow=vertical;curved=0;rounded=0;endArrow=block;" edge="1" parent="1" source="tz_qRip3l-WuFztVWXmD-3" target="tz_qRip3l-WuFztVWXmD-5">
          <mxGeometry relative="1" as="geometry">
            <Array as="points">
              <mxPoint x="1263" y="1463" />
            </Array>
          </mxGeometry>
        </mxCell>
        <mxCell id="tz_qRip3l-WuFztVWXmD-34" value="8. listaEventosFormatados" style="verticalAlign=bottom;edgeStyle=elbowEdgeStyle;elbow=vertical;curved=0;rounded=0;dashed=1;dashPattern=2 3;endArrow=block;" edge="1" parent="1" source="tz_qRip3l-WuFztVWXmD-5" target="tz_qRip3l-WuFztVWXmD-3">
          <mxGeometry relative="1" as="geometry">
            <Array as="points">
              <mxPoint x="1259" y="1517" />
            </Array>
          </mxGeometry>
        </mxCell>
        <mxCell id="tz_qRip3l-WuFztVWXmD-35" value="9. enviarEventosParaCalendarioExterno(tokenAutenticacao, listaEventosFormatados)" style="verticalAlign=bottom;edgeStyle=elbowEdgeStyle;elbow=vertical;curved=0;rounded=0;endArrow=block;" edge="1" parent="1" source="tz_qRip3l-WuFztVWXmD-3" target="tz_qRip3l-WuFztVWXmD-6">
          <mxGeometry relative="1" as="geometry">
            <Array as="points">
              <mxPoint x="1369" y="1571" />
            </Array>
          </mxGeometry>
        </mxCell>
        <mxCell id="tz_qRip3l-WuFztVWXmD-36" value="10. sincronizacaoConcluida" style="verticalAlign=bottom;edgeStyle=elbowEdgeStyle;elbow=vertical;curved=0;rounded=0;dashed=1;dashPattern=2 3;endArrow=block;" edge="1" parent="1" source="tz_qRip3l-WuFztVWXmD-6" target="tz_qRip3l-WuFztVWXmD-3">
          <mxGeometry relative="1" as="geometry">
            <Array as="points">
              <mxPoint x="1372" y="1672" />
            </Array>
          </mxGeometry>
        </mxCell>
        <mxCell id="tz_qRip3l-WuFztVWXmD-37" value="11. registrarSincronizacao(idUsuario, tipoCalendarioExterno, dataHora)" style="verticalAlign=bottom;edgeStyle=elbowEdgeStyle;elbow=vertical;curved=0;rounded=0;endArrow=block;" edge="1" parent="1" source="tz_qRip3l-WuFztVWXmD-3" target="tz_qRip3l-WuFztVWXmD-7">
          <mxGeometry relative="1" as="geometry">
            <Array as="points">
              <mxPoint x="1495" y="1726" />
            </Array>
          </mxGeometry>
        </mxCell>
        <mxCell id="tz_qRip3l-WuFztVWXmD-38" value="12. sincronizacaoRegistrada" style="verticalAlign=bottom;edgeStyle=elbowEdgeStyle;elbow=vertical;curved=0;rounded=0;dashed=1;dashPattern=2 3;endArrow=block;" edge="1" parent="1" source="tz_qRip3l-WuFztVWXmD-7" target="tz_qRip3l-WuFztVWXmD-3">
          <mxGeometry relative="1" as="geometry">
            <Array as="points">
              <mxPoint x="1498" y="1780" />
            </Array>
          </mxGeometry>
        </mxCell>
        <mxCell id="tz_qRip3l-WuFztVWXmD-39" value="13. sincronizacaoBemSucedida" style="verticalAlign=bottom;edgeStyle=elbowEdgeStyle;elbow=vertical;curved=0;rounded=0;dashed=1;dashPattern=2 3;endArrow=block;" edge="1" parent="1" source="tz_qRip3l-WuFztVWXmD-3" target="tz_qRip3l-WuFztVWXmD-2">
          <mxGeometry relative="1" as="geometry">
            <Array as="points">
              <mxPoint x="755" y="1834" />
            </Array>
          </mxGeometry>
        </mxCell>
        <mxCell id="tz_qRip3l-WuFztVWXmD-40" value="14. Exibe confirmação de sincronização" style="verticalAlign=bottom;edgeStyle=elbowEdgeStyle;elbow=vertical;curved=0;rounded=0;dashed=1;dashPattern=2 3;endArrow=block;" edge="1" parent="1" source="tz_qRip3l-WuFztVWXmD-2" target="tz_qRip3l-WuFztVWXmD-1">
          <mxGeometry relative="1" as="geometry">
            <Array as="points">
              <mxPoint x="314" y="1888" />
            </Array>
          </mxGeometry>
        </mxCell>
        <mxCell id="tz_qRip3l-WuFztVWXmD-41" value="10. erroSincronizacao(mensagemErro)" style="verticalAlign=bottom;edgeStyle=elbowEdgeStyle;elbow=vertical;curved=0;rounded=0;dashed=1;dashPattern=2 3;endArrow=block;" edge="1" parent="1" source="tz_qRip3l-WuFztVWXmD-6" target="tz_qRip3l-WuFztVWXmD-3">
          <mxGeometry relative="1" as="geometry">
            <Array as="points">
              <mxPoint x="1372" y="1989" />
            </Array>
          </mxGeometry>
        </mxCell>
        <mxCell id="tz_qRip3l-WuFztVWXmD-42" value="11. erroNaSincronizacao(mensagemErro)" style="verticalAlign=bottom;edgeStyle=elbowEdgeStyle;elbow=vertical;curved=0;rounded=0;dashed=1;dashPattern=2 3;endArrow=block;" edge="1" parent="1" source="tz_qRip3l-WuFztVWXmD-3" target="tz_qRip3l-WuFztVWXmD-2">
          <mxGeometry relative="1" as="geometry">
            <Array as="points">
              <mxPoint x="755" y="2043" />
            </Array>
          </mxGeometry>
        </mxCell>
        <mxCell id="tz_qRip3l-WuFztVWXmD-43" value="12. Exibe mensagem de erro" style="verticalAlign=bottom;edgeStyle=elbowEdgeStyle;elbow=vertical;curved=0;rounded=0;dashed=1;dashPattern=2 3;endArrow=block;" edge="1" parent="1" source="tz_qRip3l-WuFztVWXmD-2" target="tz_qRip3l-WuFztVWXmD-1">
          <mxGeometry relative="1" as="geometry">
            <Array as="points">
              <mxPoint x="314" y="2097" />
            </Array>
          </mxGeometry>
        </mxCell>
        <mxCell id="tz_qRip3l-WuFztVWXmD-44" value="1. Solicita exportação do calendário" style="verticalAlign=bottom;edgeStyle=elbowEdgeStyle;elbow=vertical;curved=0;rounded=0;endArrow=block;" edge="1" parent="1" source="tz_qRip3l-WuFztVWXmD-1" target="tz_qRip3l-WuFztVWXmD-2">
          <mxGeometry relative="1" as="geometry">
            <Array as="points">
              <mxPoint x="311" y="2210" />
            </Array>
          </mxGeometry>
        </mxCell>
        <mxCell id="tz_qRip3l-WuFztVWXmD-45" value="2. Solicita formato de exportação (PDF, iCal, CSV)" style="verticalAlign=bottom;edgeStyle=elbowEdgeStyle;elbow=vertical;curved=0;rounded=0;endArrow=block;" edge="1" parent="1" source="tz_qRip3l-WuFztVWXmD-2" target="tz_qRip3l-WuFztVWXmD-1">
          <mxGeometry relative="1" as="geometry">
            <Array as="points">
              <mxPoint x="314" y="2264" />
            </Array>
          </mxGeometry>
        </mxCell>
        <mxCell id="tz_qRip3l-WuFztVWXmD-46" value="3. Seleciona formato" style="verticalAlign=bottom;edgeStyle=elbowEdgeStyle;elbow=vertical;curved=0;rounded=0;endArrow=block;" edge="1" parent="1" source="tz_qRip3l-WuFztVWXmD-1" target="tz_qRip3l-WuFztVWXmD-2">
          <mxGeometry relative="1" as="geometry">
            <Array as="points">
              <mxPoint x="311" y="2318" />
            </Array>
          </mxGeometry>
        </mxCell>
        <mxCell id="tz_qRip3l-WuFztVWXmD-47" value="4. exportarCalendario(periodo, filtros, formato)" style="verticalAlign=bottom;edgeStyle=elbowEdgeStyle;elbow=vertical;curved=0;rounded=0;endArrow=block;" edge="1" parent="1" source="tz_qRip3l-WuFztVWXmD-2" target="tz_qRip3l-WuFztVWXmD-3">
          <mxGeometry relative="1" as="geometry">
            <Array as="points">
              <mxPoint x="752" y="2372" />
            </Array>
          </mxGeometry>
        </mxCell>
        <mxCell id="tz_qRip3l-WuFztVWXmD-48" value="5. buscarViagens(periodo, filtros)" style="verticalAlign=bottom;edgeStyle=elbowEdgeStyle;elbow=vertical;curved=0;rounded=0;endArrow=block;" edge="1" parent="1" source="tz_qRip3l-WuFztVWXmD-3" target="tz_qRip3l-WuFztVWXmD-4">
          <mxGeometry relative="1" as="geometry">
            <Array as="points">
              <mxPoint x="1145" y="2426" />
            </Array>
          </mxGeometry>
        </mxCell>
        <mxCell id="tz_qRip3l-WuFztVWXmD-49" value="6. listaViagens" style="verticalAlign=bottom;edgeStyle=elbowEdgeStyle;elbow=vertical;curved=0;rounded=0;dashed=1;dashPattern=2 3;endArrow=block;" edge="1" parent="1" source="tz_qRip3l-WuFztVWXmD-4" target="tz_qRip3l-WuFztVWXmD-3">
          <mxGeometry relative="1" as="geometry">
            <Array as="points">
              <mxPoint x="1148" y="2480" />
            </Array>
          </mxGeometry>
        </mxCell>
        <mxCell id="tz_qRip3l-WuFztVWXmD-50" value="7. converterViagensParaFormatoExportacao(listaViagens, formato)" style="verticalAlign=bottom;edgeStyle=elbowEdgeStyle;elbow=vertical;curved=0;rounded=0;endArrow=block;" edge="1" parent="1" source="tz_qRip3l-WuFztVWXmD-3" target="tz_qRip3l-WuFztVWXmD-5">
          <mxGeometry relative="1" as="geometry">
            <Array as="points">
              <mxPoint x="1256" y="2534" />
            </Array>
          </mxGeometry>
        </mxCell>
        <mxCell id="tz_qRip3l-WuFztVWXmD-51" value="8. dadosFormatados" style="verticalAlign=bottom;edgeStyle=elbowEdgeStyle;elbow=vertical;curved=0;rounded=0;dashed=1;dashPattern=2 3;endArrow=block;" edge="1" parent="1" source="tz_qRip3l-WuFztVWXmD-5" target="tz_qRip3l-WuFztVWXmD-3">
          <mxGeometry relative="1" as="geometry">
            <Array as="points">
              <mxPoint x="1259" y="2588" />
            </Array>
          </mxGeometry>
        </mxCell>
        <mxCell id="tz_qRip3l-WuFztVWXmD-52" value="9. arquivoExportacao" style="verticalAlign=bottom;edgeStyle=elbowEdgeStyle;elbow=vertical;curved=0;rounded=0;dashed=1;dashPattern=2 3;endArrow=block;" edge="1" parent="1" source="tz_qRip3l-WuFztVWXmD-3" target="tz_qRip3l-WuFztVWXmD-2">
          <mxGeometry relative="1" as="geometry">
            <Array as="points">
              <mxPoint x="755" y="2642" />
            </Array>
          </mxGeometry>
        </mxCell>
        <mxCell id="tz_qRip3l-WuFztVWXmD-53" value="10. Disponibiliza arquivo para download" style="verticalAlign=bottom;edgeStyle=elbowEdgeStyle;elbow=vertical;curved=0;rounded=0;dashed=1;dashPattern=2 3;endArrow=block;" edge="1" parent="1" source="tz_qRip3l-WuFztVWXmD-2" target="tz_qRip3l-WuFztVWXmD-1">
          <mxGeometry relative="1" as="geometry">
            <Array as="points">
              <mxPoint x="314" y="2696" />
            </Array>
          </mxGeometry>
        </mxCell>
        <mxCell id="tz_qRip3l-WuFztVWXmD-54" value="Cenário 1: Visualização do Calendário" style="fillColor=#ffff88;strokeColor=#9E916F;" vertex="1" parent="1">
          <mxGeometry x="70" y="95" width="1951" height="49" as="geometry" />
        </mxCell>
        <mxCell id="tz_qRip3l-WuFztVWXmD-55" value="Cenário 2: Filtragem do Calendário" style="fillColor=#ffff88;strokeColor=#9E916F;" vertex="1" parent="1">
          <mxGeometry x="70" y="576" width="1951" height="48" as="geometry" />
        </mxCell>
        <mxCell id="tz_qRip3l-WuFztVWXmD-56" value="Cenário 3: Sincronização com Calendário Externo" style="fillColor=#ffff88;strokeColor=#9E916F;" vertex="1" parent="1">
          <mxGeometry x="70" y="1056" width="1951" height="49" as="geometry" />
        </mxCell>
        <mxCell id="tz_qRip3l-WuFztVWXmD-57" value="Cenário 4: Exportação do Calendário" style="fillColor=#ffff88;strokeColor=#9E916F;" vertex="1" parent="1">
          <mxGeometry x="70" y="2127" width="1951" height="49" as="geometry" />
        </mxCell>
      </root>
    </mxGraphModel>
  </diagram>
</mxfile>
